<svg id="Layer_1" xmlns="http://www.w3.org/2000/svg" viewBox="0 0 202.2 179.2"><style>.st0{fill:#fbcbc7}.st1,.st2{fill:none;stroke:#ee2658;stroke-width:5;stroke-miterlimit:10}.st2{stroke:#bd529e}.st3{fill:#ee2658}</style><path class="st0" d="M103.6 179.2c0-22.7-18.4-41.1-41.1-41.1-22.7 0-41.1 18.4-41.1 41.1h82.2zm59-.5V95.9H76l86.6 82.8z"/><circle class="st0" cx="164.6" cy="37.6" r="37.6"/><path class="st0" d="M37.1 6.5H0v102.4h37.1V6.5z"/><path class="st1" d="M13.1 52.8h43v106.8h-43z"/><path class="st2" d="M67.9 52.8h114.3v64.9H67.9zM13.1 20h169.1v22H13.1zm54.8 109.2h30.7v30.3H67.9z"/><path class="st1" d="M110.3 129.2H141v30.3h-30.7z"/><path class="st3" d="M155.1 61.8c0-1.2 1-2.2 2.2-2.2s2.2 1 2.2 2.2c0 1.2-1 2.2-2.2 2.2s-2.2-1-2.2-2.2m6.7 0c0-1.2 1-2.2 2.2-2.2 1.2 0 2.2 1 2.2 2.2 0 1.2-1 2.2-2.2 2.2-1.2-.1-2.2-1-2.2-2.2m6.8 0c0-1.2 1-2.2 2.2-2.2s2.2 1 2.2 2.2c0 1.2-1 2.2-2.2 2.2s-2.2-1-2.2-2.2"/><path class="st2" d="M153.3 129.2v27.5l26.7-27.5z"/></svg>