<svg id="Layer_1" xmlns="http://www.w3.org/2000/svg" viewBox="0 0 68.8 64.4"><style>.st0{fill:#fbcbc7}.st1,.st2{fill:none;stroke:#ee2658;stroke-width:5;stroke-miterlimit:10}.st2{stroke:#bd529e}</style><path class="st0" d="M6.3 16.1c-8.4 8.4-8.4 22 0 30.4 8.4 8.4 22 8.4 30.4 0L6.3 16.1zM68.8 0H46.4v61.9h22.4V0z"/><path class="st1" d="M11.6 9.2l50.6 50.6"/><path class="st2" d="M55.4 20c0 4.2-3.4 7.7-7.7 7.7h-.6L39.4 20H33C19.4 20 8.4 31.1 8.4 44.7v10h8.3V42.9c0-3.6 2.9-6.5 6.5-6.5s6.5 2.9 6.5 6.5V62h9.8V36.5h8.3c4 0 7.2 3 7.6 6.9v.8h7.1V20h-7.1z"/></svg>