<svg id="Layer_1" xmlns="http://www.w3.org/2000/svg" viewBox="0 0 169.5 212.8"><style>.st0{fill:#fbcbc7}.st1,.st2{fill:none;stroke:#ee2658;stroke-width:5;stroke-miterlimit:10}.st2{stroke:#bd529e}</style><circle class="st0" cx="94.1" cy="23.3" r="23.3"/><path class="st0" d="M0 149v63.8h66.8L0 149zM42.6 23.3H7.9v95.8h34.7V23.3zm74.8 162.6c28.8 0 52.1-23.3 52.1-52s-23.3-52-52.1-52v104z"/><path class="st1" d="M69.5 62.6v19.2m35.8 17.5V81.2H33.7v20.1m0 47.2v18.1m71.6-41.2V167"/><path class="st2" d="M81.3 101.3v47.1l49.2-47.1zm-71.1 0h46.2v46.2H10.2zm11.5-38.1c0-26.4 21.4-47.9 47.9-47.9 26.4 0 47.9 21.4 47.9 47.9H21.7zm-4.6 120c0-9.2 7.4-16.6 16.6-16.6s16.6 7.4 16.6 16.6-7.4 16.6-16.6 16.6-16.6-7.4-16.6-16.6M69.5 167h83.7v33.2H69.5z"/></svg>