<?xml version="1.0" encoding="utf-8"?>
<!-- Generator: Adobe Illustrator 20.1.0, SVG Export Plug-In . SVG Version: 6.00 Build 0)  -->
<svg version="1.1" id="Layer_1" xmlns="http://www.w3.org/2000/svg" xmlns:xlink="http://www.w3.org/1999/xlink" x="0px" y="0px"
	 viewBox="0 0 68.8 64.4" style="enable-background:new 0 0 68.8 64.4;" xml:space="preserve">
<style type="text/css">
	.st0{fill:#FBCBC7;}
	.st1{fill:none;stroke:#EE2658;stroke-width:5;stroke-miterlimit:10;}
	.st2{fill:none;stroke:#BD529E;stroke-width:5;stroke-miterlimit:10;}
</style>
<path class="st0" d="M6.3,16.1c-8.4,8.4-8.4,22,0,30.4c8.4,8.4,22,8.4,30.4,0L6.3,16.1L6.3,16.1z"/>
<polygon class="st0" points="68.8,0 46.4,0 46.4,61.9 68.8,61.9 68.8,0 "/>
<line class="st1" x1="11.6" y1="9.2" x2="62.2" y2="59.8"/>
<path class="st2" d="M55.4,20c0,4.2-3.4,7.7-7.7,7.7h-0.6c-3-3-4.7-4.7-7.7-7.7h-6.4C19.4,20,8.4,31.1,8.4,44.7v10h8.3l0-3.6v-8.2
	c0-3.6,2.9-6.5,6.5-6.5l0,0c3.6,0,6.5,2.9,6.5,6.5v2.5v5.8v1.5v9.3h9.8V44.2v-7.5v-0.2h8.3c4,0,7.2,3,7.6,6.9c0,0.3,0,0.5,0,0.8h7.1
	V20H55.4z"/>
</svg>
