<?xml version="1.0" encoding="utf-8"?>
<!-- Generator: Adobe Illustrator 20.1.0, SVG Export Plug-In . SVG Version: 6.00 Build 0)  -->
<svg version="1.1" id="Layer_1" xmlns="http://www.w3.org/2000/svg" xmlns:xlink="http://www.w3.org/1999/xlink" x="0px" y="0px"
	 viewBox="0 0 54.4 66.2" style="enable-background:new 0 0 54.4 66.2;" xml:space="preserve">
<style type="text/css">
	.st0{fill:#FBCBC7;}
	.st1{fill:none;stroke:#BD529E;stroke-width:5;stroke-miterlimit:10;}
	.st2{fill:none;stroke:#EE2658;stroke-width:5;stroke-miterlimit:10;}
</style>
<polygon class="st0" points="39.1,27.3 39.1,0 10.4,0 39.1,27.3 "/>
<path class="st0" d="M11.5,40.4c0,8.7,7,15.8,15.7,15.8c8.7,0,15.7-7.1,15.7-15.8H11.5L11.5,40.4z"/>
<path class="st1" d="M13.8,18.2C7,22.6,2.5,30.3,2.5,39c0,13.6,11.1,24.7,24.7,24.7S51.9,52.6,51.9,39c0-8.7-4.5-16.4-11.3-20.8"/>
<rect x="16.4" y="13.5" transform="matrix(-1.836970e-16 1 -1 -1.836970e-16 45.4227 -9.0064)" class="st2" width="21.7" height="9.3"/>
</svg>
