<?xml version="1.0" encoding="utf-8"?>
<!-- Generator: Adobe Illustrator 20.1.0, SVG Export Plug-In . SVG Version: 6.00 Build 0)  -->
<svg version="1.1" id="Layer_1" xmlns="http://www.w3.org/2000/svg" xmlns:xlink="http://www.w3.org/1999/xlink" x="0px" y="0px"
	 viewBox="0 0 169.5 212.8" style="enable-background:new 0 0 169.5 212.8;" xml:space="preserve">
<style type="text/css">
	.st0{fill:#FBCBC7;}
	.st1{fill:none;stroke:#EE2658;stroke-width:5;stroke-miterlimit:10;}
	.st2{fill:none;stroke:#BD529E;stroke-width:5;stroke-miterlimit:10;}
</style>
<circle class="st0" cx="94.1" cy="23.3" r="23.3"/>
<polygon class="st0" points="0,149 0,212.8 66.8,212.8 0,149 "/>
<polygon class="st0" points="42.6,23.3 7.9,23.3 7.9,119.1 42.6,119.1 42.6,23.3 "/>
<path class="st0" d="M117.4,185.9c28.8,0,52.1-23.3,52.1-52c0-28.7-23.3-52-52.1-52V185.9L117.4,185.9z"/>
<line class="st1" x1="69.5" y1="62.6" x2="69.5" y2="81.8"/>
<polyline class="st1" points="105.3,99.3 105.3,81.2 33.7,81.2 33.7,101.3 "/>
<line class="st1" x1="33.7" y1="148.5" x2="33.7" y2="166.6"/>
<line class="st1" x1="105.3" y1="125.4" x2="105.3" y2="167"/>
<polygon class="st2" points="81.3,101.3 81.3,148.4 130.5,101.3 "/>
<rect x="10.2" y="101.3" class="st2" width="46.2" height="46.2"/>
<path class="st2" d="M21.7,63.2c0-26.4,21.4-47.9,47.9-47.9c26.4,0,47.9,21.4,47.9,47.9H21.7z"/>
<path class="st2" d="M17.1,183.2c0-9.2,7.4-16.6,16.6-16.6s16.6,7.4,16.6,16.6s-7.4,16.6-16.6,16.6S17.1,192.4,17.1,183.2"/>
<rect x="69.5" y="167" class="st2" width="83.7" height="33.2"/>
</svg>
